<svg version="1.0" viewBox="0 0 512.68 455.26" xml:space="preserve" xmlns="http://www.w3.org/2000/svg">
<style type="text/css">
	.st0{fill:#FCBC05;}
	.st1{fill:#E94335;}
	.st2{fill:#1973E8;}
	.st3{fill:#34A853;}
	.st4{fill:#174FA7;}
</style>
<path transform="translate(-164.6 -70.004)" d="m420.94 213.62 24.26 42.02 24.24 41.99 24.26 42.01h-145.51l24.24-42.01 24.26-41.99zm-24.25 42.02-24.26 42-24.24 42.01h-141.59c-23.19 0-42-18.81-42-42.01 0-11.59 4.69-22.09 12.3-29.7 7.61-7.59 18.09-12.3 29.7-12.3zm280.59 41.99c0 23.2-18.81 42.01-42.01 42.01h-141.57l-24.26-42.01-24.24-42-24.26-42.01 70.79-122.6c11.6-20.1 37.3-26.98 57.39-15.38 20.08 11.59 26.98 37.29 15.38 57.37l-70.8 122.63h141.57c23.21 0 42.01 18.8 42.01 41.99zm-128.17 222c-20.08 11.6-45.78 4.71-57.39-15.38l-70.79-122.6-70.79 122.6c-11.6 20.08-37.29 26.98-57.37 15.38-13.47-7.78-21.01-21.9-21.01-36.41 0-7.13 1.81-14.35 5.63-20.98l70.79-122.6h145.52l70.79 122.6c11.6 20.1 4.7 45.79-15.38 57.39zm-152.42-263.99h-48.5l-70.79-122.62c-11.6-20.08-4.72-45.78 15.38-57.37 6.61-3.82 13.83-5.63 20.96-5.63 14.51 0 28.63 7.53 36.41 21.01l70.79 122.6z"/>
</svg>
